<svg width="608" height="486" viewBox="0 0 608 486" fill="none" xmlns="http://www.w3.org/2000/svg">
<path fill-rule="evenodd" clip-rule="evenodd" d="M3.14418 104.992C4.99767 105.61 5.6155 106.845 8.39573 107.772C11.176 108.39 13.3384 107.772 15.8097 107.154H18.281L19.5167 108.39L21.0612 109.316C35.5802 111.787 29.4019 104.992 39.2872 105.301C40.5229 107.154 41.4496 108.39 43.9209 108.699C48.2457 109.316 47.6279 106.845 51.026 108.081C58.131 110.861 61.838 107.154 64.9271 105.919C65.8539 106.845 66.1628 107.154 67.0895 107.772L68.0163 109.625C67.3984 110.243 67.7074 108.699 67.7074 110.861C66.7806 111.17 65.8539 111.17 65.236 111.478C65.236 115.185 65.8539 115.185 63.0736 116.421C62.7647 116.421 62.4558 116.421 62.4558 116.421C62.1469 116.421 61.838 116.729 61.838 116.729C49.4814 111.478 48.8636 113.949 46.7012 117.038C46.0833 120.127 48.2457 122.907 50.4081 124.142C53.4973 125.996 56.5864 125.378 59.6756 124.142C59.9845 124.142 60.6023 124.451 60.9112 124.76C60.9112 125.687 61.838 126.922 62.4558 127.849C64.0004 130.938 68.0163 132.482 71.4143 132.482C75.1213 132.482 76.357 130.938 78.8283 130.32C79.755 129.702 79.4461 130.011 80.3729 129.393C81.2996 128.467 80.6818 129.085 80.9907 128.158C81.2996 127.54 81.2996 127.54 81.6085 127.231C82.5353 126.614 81.9174 127.231 82.5353 126.614C83.1531 125.996 82.8442 126.305 83.1531 125.378L84.3888 125.687C86.2422 126.614 87.4779 127.231 89.9492 127.54C93.3473 127.54 94.274 126.614 96.7453 125.996C97.6721 125.996 97.3632 125.687 98.2899 126.305L98.9077 127.231C99.2167 128.467 98.9077 128.158 99.8345 129.085C100.452 130.32 100.452 130.011 101.07 130.32C103.85 131.864 106.631 133.1 110.647 131.864C114.353 130.629 114.971 128.776 116.825 126.305C122.076 126.922 120.841 127.231 125.783 125.996L126.401 125.069C126.71 125.069 126.71 125.069 126.71 125.069C130.108 121.98 130.108 121.98 131.344 116.729C134.124 116.729 135.669 117.347 138.449 116.421C142.465 114.876 139.376 114.567 144.627 115.803C151.423 117.965 156.675 113.332 157.602 113.641C158.219 113.641 160.691 118.274 166.869 117.347C178.299 116.112 180.152 97.27 164.089 97.27C162.544 93.5635 162.853 91.0924 157.602 87.3859C152.659 83.6794 149.879 84.9149 143.7 84.9149C141.847 82.4438 140.611 80.8994 136.904 79.9728C133.506 79.0462 129.49 80.2817 127.637 82.135C123.312 85.5326 125.165 86.7681 122.385 88.6214C119.296 91.0924 118.987 92.328 118.369 96.9611C116.516 97.5789 116.516 98.5055 114.353 99.1233C110.647 94.4901 106.631 93.5635 99.2167 93.8724C97.6721 92.0191 97.981 89.8569 94.274 86.4593C92.4205 84.606 89.6403 83.0616 85.9333 82.4438C80.6818 81.8261 76.048 83.6794 72.3411 87.3859C71.1054 88.6214 70.7965 89.5481 69.5608 90.7836C68.3252 89.5481 68.0163 85.8415 62.7647 82.7527C57.8221 79.9728 55.3508 81.5172 50.0992 82.135C48.5546 76.5751 40.8318 70.7064 32.4911 72.2508C25.0771 73.1775 19.5167 79.0462 18.281 86.1504C15.8097 85.8415 9.01356 81.8261 3.14418 88.3125C0.363949 91.4013 -0.87171 96.3434 0.672864 100.359C1.29069 101.903 1.90852 102.83 2.21744 103.756V104.683L3.14418 104.992Z" fill="#CCCCFF"/>
<path fill-rule="evenodd" clip-rule="evenodd" d="M208.572 153.795C213.206 153.486 214.442 154.413 218.149 151.324C219.076 151.015 218.458 151.633 219.384 150.397L223.091 149.471C225.872 151.633 227.725 153.795 232.359 154.104C238.228 154.413 239.464 152.868 243.171 150.706L244.098 149.779L245.024 148.853L245.333 148.235C247.496 149.779 248.114 151.324 251.512 152.559C256.145 153.795 256.763 152.25 260.161 151.942C260.47 151.633 260.779 151.633 261.397 151.324C262.324 150.397 261.706 151.015 262.015 150.397H262.324C263.559 149.779 262.633 150.706 263.25 149.779C263.868 148.853 263.25 149.779 263.559 148.853L263.868 148.235L265.413 147.926C267.266 150.706 269.429 149.471 271.282 150.706C273.136 152.25 274.062 152.868 276.843 153.795C280.55 154.104 284.257 154.413 287.346 152.559C288.581 151.633 290.126 150.088 291.053 149.779C291.053 149.779 295.686 150.397 296.613 150.397L296.922 150.706C297.54 151.942 296.613 150.706 297.231 151.633C297.54 151.942 297.849 151.942 298.467 152.25C304.027 154.413 305.572 154.722 310.514 151.324C311.441 151.633 316.693 156.266 321.635 151.324C325.651 146.691 322.871 142.675 321.635 140.204C325.651 139.895 327.196 138.969 329.976 137.115C332.447 138.66 333.683 141.44 338.935 140.822C342.641 140.204 344.804 137.733 346.04 134.953C347.584 130.938 346.657 127.54 344.495 125.069C341.715 121.98 338.935 121.98 334.61 122.598C333.992 118.583 330.903 115.494 328.122 114.258C323.18 111.478 320.4 112.405 315.766 113.641C313.912 107.772 306.19 102.212 297.849 103.448C293.833 103.757 290.435 105.919 288.272 108.081C284.257 112.405 284.565 115.185 283.33 117.656C274.989 114.258 275.916 116.421 271.591 117.038C269.12 117.347 267.884 110.243 252.747 114.876C244.098 100.977 222.165 105.919 220.311 121.98C211.044 121.671 204.248 125.996 203.63 135.571C189.729 131.556 186.639 147.308 194.98 151.633C198.996 153.795 201.158 151.942 204.248 151.015L207.646 153.177C208.264 153.486 208.264 153.486 208.572 153.795Z" fill="#CCCCFF"/>
<path fill-rule="evenodd" clip-rule="evenodd" d="M491.538 193.64C491.229 194.567 491.538 193.949 490.612 194.567C486.905 199.818 490.303 196.729 485.978 200.436C483.507 202.598 483.815 204.451 483.198 208.158H481.653C481.344 209.084 481.653 208.775 481.035 209.084C480.726 209.702 481.344 209.084 480.726 209.702C479.8 210.011 479.8 210.011 479.182 210.011L477.328 212.791C472.077 212.482 472.077 212.173 467.134 213.717C466.207 214.335 468.37 214.953 465.898 214.335L465.281 213.1L464.663 211.864C463.736 211.555 464.045 212.173 463.736 211.555L463.427 210.629C462.191 210.011 460.338 208.466 458.175 207.231C455.704 206.304 453.233 205.995 450.453 205.995C444.583 205.995 441.494 208.775 438.096 211.555C437.787 212.482 437.787 212.173 437.169 212.482C435.625 215.571 434.08 217.115 433.462 221.13C430.682 221.13 429.137 221.13 426.357 222.057C424.504 222.675 422.65 224.528 421.415 224.837L421.106 225.764C421.106 226.381 421.106 226.073 420.488 226.073L419.561 227.308C419.252 228.235 419.561 227.617 418.943 228.544C418.634 229.161 418.943 228.544 418.325 229.161C418.017 230.706 417.09 232.25 416.781 235.03C408.749 232.25 403.806 236.574 403.498 244.605C403.806 244.914 403.806 244.914 404.115 245.532C404.424 245.841 404.424 246.15 404.733 246.767C405.042 247.694 405.351 247.385 405.66 248.93L406.587 249.856C410.603 252.945 413.383 252.018 417.399 250.165C419.87 251.401 424.813 256.034 431.609 250.474C432.844 249.547 434.698 248.93 436.86 248.93C440.876 255.107 453.542 254.489 456.94 249.238L458.175 248.312L457.867 248.003L459.102 247.076L459.72 248.003L460.338 249.238C462.5 250.783 464.045 252.018 467.134 252.327C470.532 252.636 472.694 251.709 474.857 250.165C475.475 248.93 474.857 249.238 476.401 248.93L477.019 248.003C477.637 246.459 477.019 247.385 478.255 246.767C479.182 247.385 478.564 247.076 479.182 248.003C480.417 248.621 481.035 248.93 481.962 249.238C484.124 249.856 483.507 249.238 485.36 250.474C492.465 256.034 501.424 252.945 503.895 249.238C505.439 249.238 509.455 249.856 510.382 250.165L511.927 251.709C516.251 255.416 522.43 251.709 524.283 250.783C528.917 254.489 535.404 252.945 536.949 247.076C537.876 243.679 536.331 241.208 534.786 239.663C531.079 236.266 528.608 238.737 526.755 238.119L525.21 236.266C524.592 235.648 524.283 235.03 523.357 234.721C522.739 233.486 522.43 233.795 521.812 232.868C520.885 231.015 521.503 231.632 519.341 228.544C519.341 228.235 519.032 227.926 518.723 227.617C518.414 226.381 517.796 228.235 518.723 226.073L522.121 224.837C524.592 226.69 525.828 228.544 529.844 228.852C533.242 228.852 536.022 226.999 537.876 225.455L538.802 224.219C543.127 215.571 538.493 208.158 528.917 208.466C527.99 206.304 527.99 204.76 526.446 202.598C521.194 195.185 516.251 195.494 508.529 196.111C506.675 193.64 505.131 191.478 501.424 190.86C496.481 189.934 494.319 191.787 491.538 193.64Z" fill="#CCCCFF"/>
<path fill-rule="evenodd" clip-rule="evenodd" d="M354.998 172.945L354.689 172.637L353.762 172.945L353.453 173.872L353.144 174.181C352.527 174.799 352.836 174.181 352.218 174.799C351.909 175.725 352.218 175.108 351.909 176.034C351.291 176.652 349.438 180.358 349.438 181.903C348.202 182.521 349.129 182.521 347.275 182.212C343.877 181.903 343.877 180.667 339.861 181.594C337.081 182.212 335.536 183.447 333.992 184.992L333.065 185.301V186.227C332.447 187.463 331.829 188.389 331.212 189.625C329.049 197.347 333.992 201.053 334.61 201.98C335.536 203.833 333.992 201.671 335.227 202.907C335.227 203.215 335.536 203.215 335.845 203.524C336.772 204.142 336.772 204.142 338.008 204.142C342.024 205.378 344.186 205.069 348.202 203.524C349.746 204.451 350.673 205.687 353.144 206.613C354.998 207.231 358.087 206.922 359.941 206.304C363.03 205.069 367.663 199.818 370.753 203.524C372.297 204.76 373.533 205.995 376.313 205.687C380.329 205.378 377.858 203.833 382.491 205.069C388.67 206.922 390.832 205.069 395.466 202.907C396.701 202.907 398.555 206.922 404.733 205.995C411.529 205.069 415.236 196.42 409.985 190.551C407.513 187.463 405.042 187.772 400.408 187.772C398.246 183.756 396.084 178.196 388.052 177.887C384.654 177.887 383.727 178.814 381.256 178.814C377.549 171.401 370.753 167.386 363.03 168.93C359.014 169.857 358.705 170.783 356.234 171.71H355.307L354.998 172.945Z" fill="#CCCCFF"/>
<path fill-rule="evenodd" clip-rule="evenodd" d="M376.313 114.258L377.24 115.185C382.183 121.363 391.141 115.803 391.141 115.803C396.393 119.818 398.555 119.2 403.807 116.112C407.205 117.038 408.749 117.965 412.456 117.656C416.163 117.038 417.399 116.112 419.87 114.876C421.724 116.112 423.886 119.2 429.447 118.583C440.876 117.347 442.73 98.5056 426.666 98.8144C425.74 94.1812 422.959 90.7836 420.179 88.6214C415.545 85.5326 412.147 85.8415 406.278 86.4593C403.189 81.5172 396.393 78.7373 390.214 83.0616C387.125 85.5326 387.434 88.3126 385.272 89.8569C382.8 92.0191 381.256 93.5635 381.256 98.1967C379.402 99.1233 378.785 99.1233 377.549 100.668C373.224 104.992 373.533 111.17 376.313 114.258Z" fill="#CCCCFF"/>
<path fill-rule="evenodd" clip-rule="evenodd" d="M180.152 269.624C185.095 271.169 191.891 281.362 207.028 270.242C208.881 269.007 207.955 269.316 210.735 269.624C211.97 269.933 214.442 269.933 215.368 270.242C218.767 271.169 218.149 275.493 229.27 274.875C229.579 274.566 229.579 274.566 230.196 273.949C230.505 273.949 231.123 273.64 231.432 273.64C232.359 273.022 232.668 273.022 233.903 272.713C236.066 271.169 236.375 272.095 238.228 273.331C242.862 275.802 249.349 274.258 252.438 268.698C254.292 264.991 253.674 260.358 251.203 257.578C248.731 254.18 245.642 253.872 240.391 254.18C236.684 255.725 240.391 250.165 233.903 248.93C231.432 247.076 227.416 231.015 211.044 235.339C208.572 235.957 205.792 237.81 204.556 238.119C203.012 238.119 199.614 236.266 197.451 235.957C193.436 235.648 191.891 236.574 188.184 236.574C162.544 202.289 98.9076 263.756 180.152 269.624Z" fill="#CCCCFF"/>
<path fill-rule="evenodd" clip-rule="evenodd" d="M405.66 248.93C405.351 247.385 405.042 247.694 404.733 246.767C404.424 246.15 404.424 245.841 404.115 245.532C403.806 244.914 403.806 244.914 403.498 244.605C403.806 245.841 403.806 246.15 404.115 247.076C404.115 247.076 404.733 248.003 404.733 248.312C405.66 249.238 404.733 248.312 405.66 248.93Z" fill="#CCCCFF"/>
<path fill-rule="evenodd" clip-rule="evenodd" d="M152.968 284.759C153.895 284.759 154.203 284.759 155.13 284.142L155.748 283.833C156.675 283.524 156.057 283.833 156.675 283.215C155.748 283.524 155.439 283.524 154.821 283.833C154.512 283.833 154.203 284.142 153.895 284.142C153.277 284.451 153.277 284.451 152.968 284.759Z" fill="#CCCCFF"/>
<path fill-rule="evenodd" clip-rule="evenodd" d="M477.019 248.003C477.946 247.694 477.328 248.312 478.255 247.385L479.182 248.003C478.564 247.076 479.182 247.385 478.255 246.767C477.019 247.385 477.637 246.458 477.019 248.003Z" fill="#CCCCFF"/>
<path fill-rule="evenodd" clip-rule="evenodd" d="M479.182 210.011C479.8 210.011 479.8 210.011 480.726 209.702C481.344 209.084 480.726 209.702 481.035 209.084C481.653 208.775 481.344 209.084 481.653 208.157C480.109 208.775 480.109 208.775 479.182 210.011Z" fill="#CCCCFF"/>
<path fill-rule="evenodd" clip-rule="evenodd" d="M467.134 213.717L465.281 213.1L465.898 214.335C468.37 214.953 466.207 214.335 467.134 213.717Z" fill="#CCCCFF"/>
<path fill-rule="evenodd" clip-rule="evenodd" d="M418.326 229.161C418.943 228.544 418.634 229.161 418.943 228.544C419.561 227.617 419.252 228.235 419.561 227.308C418.326 227.617 418.634 227.926 418.326 229.161Z" fill="#CCCCFF"/>
<path fill-rule="evenodd" clip-rule="evenodd" d="M526.754 238.119C526.446 236.883 526.754 237.81 526.446 236.883C525.519 235.648 526.137 236.574 525.21 236.265L526.754 238.119Z" fill="#CCCCFF"/>
<path fill-rule="evenodd" clip-rule="evenodd" d="M511.927 251.709L510.382 250.165L510.691 251.401L511.927 251.709Z" fill="#CCCCFF"/>
<path fill-rule="evenodd" clip-rule="evenodd" d="M464.663 211.864C464.045 210.32 464.972 211.246 463.427 210.629L463.736 211.555C464.045 212.173 463.736 211.555 464.663 211.864Z" fill="#CCCCFF"/>
<path fill-rule="evenodd" clip-rule="evenodd" d="M420.488 226.073C421.106 226.073 421.106 226.381 421.106 225.764L421.415 224.837C419.87 225.764 420.797 224.528 420.488 226.073Z" fill="#CCCCFF"/>
<path fill-rule="evenodd" clip-rule="evenodd" d="M474.857 250.165L476.402 248.93C474.857 249.238 475.475 248.93 474.857 250.165Z" fill="#CCCCFF"/>
<path fill-rule="evenodd" clip-rule="evenodd" d="M161.309 269.624C160.382 269.624 160.382 269.624 159.764 269.007L160.382 270.242L161.309 269.624Z" fill="#CCCCFF"/>
<path fill-rule="evenodd" clip-rule="evenodd" d="M490.612 194.567C491.538 193.949 491.229 194.567 491.538 193.64C490.303 193.949 491.229 193.331 490.612 194.567Z" fill="#CCCCFF"/>
<path fill-rule="evenodd" clip-rule="evenodd" d="M457.867 248.003C459.411 247.694 458.484 247.694 459.72 248.003L459.102 247.076L457.867 248.003Z" fill="#CCCCFF"/>
<path fill-rule="evenodd" clip-rule="evenodd" d="M537.875 225.455C538.802 225.455 538.493 225.764 538.493 224.837L538.802 224.219L537.875 225.455Z" fill="#CCCCFF"/>
<path fill-rule="evenodd" clip-rule="evenodd" d="M106.94 320.589L105.395 319.354C106.013 319.972 105.395 319.663 106.013 319.972C106.631 320.589 106.013 320.281 106.94 320.589Z" fill="#CCCCFF"/>
<path fill-rule="evenodd" clip-rule="evenodd" d="M406.587 249.856L405.66 248.93C405.351 249.547 405.351 249.238 405.969 249.238C405.969 250.165 405.66 249.238 406.587 249.856Z" fill="#CCCCFF"/>
<path fill-rule="evenodd" clip-rule="evenodd" d="M456.94 249.238C458.485 248.621 457.558 249.238 458.176 248.312L456.94 249.238Z" fill="#CCCCFF"/>
<path fill-rule="evenodd" clip-rule="evenodd" d="M325.651 113.641L324.724 112.714C325.342 113.332 325.033 113.332 325.651 113.641Z" fill="#CCCCFF"/>
<path fill-rule="evenodd" clip-rule="evenodd" d="M437.169 212.482C437.787 212.173 437.787 212.482 438.096 211.555L437.169 212.482Z" fill="#CCCCFF"/>
<path fill-rule="evenodd" clip-rule="evenodd" d="M460.338 249.238L459.72 248.003L460.338 249.238Z" fill="#CCCCFF"/>
<path fill-rule="evenodd" clip-rule="evenodd" d="M522.121 138.042L523.357 139.278C530.153 147.617 542.818 140.204 542.818 139.895C549.923 145.455 553.012 144.837 560.117 140.822C564.751 141.749 566.914 142.984 572.165 142.366C577.417 142.057 578.961 140.513 582.668 138.969C585.14 140.513 587.92 145.146 595.643 144.22C611.088 142.366 614.178 116.112 591.627 116.729C590.391 109.934 586.684 105.61 582.668 102.521C576.49 98.1967 571.856 98.5056 563.515 99.4322C559.5 92.6369 550.232 88.9303 541.583 95.1079C537.258 98.1967 537.258 101.903 534.477 104.374C531.079 107.154 528.917 109.316 528.917 115.803C526.446 117.347 525.828 117.347 523.665 119.2C517.796 125.069 518.105 133.718 522.121 138.042Z" fill="#CCCCFF"/>
<path fill-rule="evenodd" clip-rule="evenodd" d="M497.717 442.905C500.806 443.523 499.879 442.288 499.879 452.172C499.879 456.187 499.879 460.203 499.879 464.218C496.172 463.909 496.79 465.145 496.79 454.952C496.79 452.79 496.79 450.936 496.79 448.774C496.79 448.156 496.79 446.303 496.79 445.685C497.099 441.979 496.79 444.141 497.717 442.905ZM235.139 238.428C237.302 238.428 239.773 238.428 241.935 238.428C253.365 238.119 243.789 240.281 253.983 240.281C256.145 240.281 257.999 240.281 259.852 239.354C258.617 233.794 254.601 235.957 249.349 237.192C245.024 238.428 238.846 237.192 234.83 238.119C215.986 238.737 219.385 256.343 219.076 273.022C219.076 285.377 216.604 419.122 217.531 425.299C216.604 425.608 218.767 425.299 215.986 425.917C215.369 425.917 214.751 425.917 213.824 425.917C211.662 426.226 211.971 425.917 210.117 426.844L188.184 427.153C187.257 410.782 187.875 357.655 187.875 337.269L187.566 201.671C187.566 187.154 186.64 170.783 187.566 156.266C188.802 126.305 231.741 133.718 231.741 133.718C234.521 135.262 229.579 136.189 240.7 136.189C247.496 136.189 246.569 136.806 250.894 134.027C249.967 130.011 248.114 129.085 245.024 129.393C235.139 130.629 233.904 132.482 225.254 132.173C177.372 131.247 185.713 151.942 185.095 197.347L183.242 335.724C182.933 365.686 181.388 397.809 182.315 427.461L91.8027 430.241V432.095C93.3473 434.875 97.3632 450.01 103.233 455.261V444.759L107.248 444.141V461.747C109.102 462.983 109.72 463.6 111.573 465.762C113.736 468.233 114.354 468.233 116.516 470.087C124.239 475.955 129.799 479.044 139.376 482.133C143.391 483.369 151.114 484.295 153.895 485.531H464.045C468.988 482.751 479.8 484.913 499.57 469.778C502.659 467.307 505.44 463.909 508.529 461.747V444.45L512.545 444.759V455.261C518.414 449.392 521.503 436.11 523.974 432.404V430.55L433.462 427.461C434.389 413.562 432.845 356.11 432.536 337.887C431.609 278.891 431.918 215.879 430.064 157.81C429.447 131.864 407.205 132.482 387.434 132.482C381.565 132.482 374.769 129.393 367.664 129.393C366.428 131.247 365.81 131.247 364.883 134.027C368.59 136.806 366.119 136.189 374.769 136.189C384.963 136.189 381.874 136.189 384.036 133.409C396.702 133.1 410.912 132.791 420.179 139.586C430.373 147 428.52 159.046 428.211 174.181L427.902 343.446C427.902 370.628 428.829 400.28 427.593 427.461L402.571 426.844L398.555 426.535C398.555 425.917 398.555 424.373 398.555 421.284L397.937 398.736C398.864 390.396 397.01 292.173 396.702 275.184C395.466 240.899 397.628 242.134 367.046 239.972C365.501 239.663 362.412 238.737 360.867 238.737C356.852 238.119 356.543 238.428 355.925 241.516C358.705 243.061 366.428 243.679 367.355 241.825C374.46 239.663 393.921 241.208 394.539 252.018C395.775 255.107 395.775 269.624 395.775 273.022L395.157 426.226L391.759 425.917H384.345C381.874 415.415 375.078 395.956 375.386 385.454L374.46 382.983L334.919 179.432C333.065 169.857 336.772 154.413 338.008 144.22L341.715 117.347C342.024 114.258 343.568 111.17 341.097 109.625C338.626 108.081 338.008 110.552 336.154 112.714C330.903 118.274 325.033 123.216 324.724 128.776C324.107 140.204 323.489 151.324 322.562 162.443C317.619 162.752 296.613 163.37 293.833 162.135C291.979 158.737 291.362 135.262 291.053 129.393C290.744 125.069 291.362 125.069 288.89 122.598L276.534 108.39H275.607C275.607 108.699 275.298 108.699 275.298 108.699L273.445 110.243C273.136 118.583 279.932 157.501 281.476 171.401C282.094 176.652 279.623 186.227 278.696 191.478L248.114 348.697C243.171 374.643 238.537 401.207 231.432 425.917H221.547L220.929 424.99C221.856 392.249 220.62 357.964 220.62 325.223C220.62 317.192 220.002 254.489 220.929 249.547C223.092 239.972 229.888 239.972 235.139 238.428ZM281.476 218.659L282.094 219.277C283.021 225.764 277.769 251.092 276.225 258.814C274.989 265.3 273.754 271.787 272.827 277.964C271.9 283.833 268.811 291.864 268.502 296.188H267.575L281.476 218.659ZM282.403 198.891C284.257 200.127 283.33 201.98 283.021 204.451C282.403 214.026 279.005 226.999 277.152 236.883C275.298 247.385 273.136 258.196 271.282 269.007C269.12 280.435 264.795 306.072 262.324 316.883C261.088 321.516 258.926 326.767 258.308 331.4L257.999 330.782C257.69 322.752 282.094 209.084 282.403 198.891ZM242.862 386.072L242.244 386.381L282.403 180.358C283.948 194.258 277.46 219.277 274.68 233.486C271.591 250.783 268.193 267.771 264.795 285.068C261.088 305.763 254.601 343.446 249.349 362.597C247.496 369.083 243.48 380.203 242.862 386.072ZM372.915 382.983H371.988C371.062 376.496 367.355 365.995 365.501 359.199C363.339 351.168 361.794 342.829 360.25 334.18C356.852 317.501 353.762 300.821 350.673 283.833C347.584 266.536 344.186 249.856 340.788 232.868C339.243 224.219 337.699 215.879 336.154 207.231C333.992 196.729 332.447 191.787 333.374 180.358C335.536 184.683 337.39 199.2 338.626 205.378L363.339 332.636C366.428 349.006 370.444 366.612 372.915 382.983ZM205.483 440.434C206.101 439.817 206.101 440.125 206.41 438.89C206.41 438.581 206.719 437.037 206.719 436.728C206.719 435.492 206.41 433.948 206.41 432.712C204.866 434.875 205.483 437.037 205.483 440.434ZM115.898 464.218C115.898 459.276 114.662 446.612 116.516 443.214L118.678 442.905C119.605 445.685 119.605 460.82 118.678 463.6L115.898 464.218ZM128.564 441.67C129.799 444.141 129.181 449.083 129.181 452.172C129.181 461.129 130.108 460.82 127.019 461.129C126.401 458.967 126.71 449.083 126.71 445.068C126.71 441.67 126.092 442.288 128.564 441.67ZM488.758 461.438L487.214 460.82C485.978 458.349 486.287 443.214 487.214 441.67C490.303 442.288 489.376 441.979 489.376 450.936C489.376 452.79 489.376 454.643 489.376 456.496C489.376 459.894 489.685 459.894 488.758 461.438ZM477.328 440.743C479.8 441.67 479.182 438.89 479.182 449.392V456.496C478.255 460.512 479.491 457.114 477.946 458.658C475.784 457.423 476.711 457.423 476.711 450.01C476.711 448.465 476.711 446.921 476.711 445.068C476.711 442.597 476.402 442.597 477.328 440.743ZM138.449 440.434C139.685 442.288 139.067 450.627 139.067 454.334C139.067 457.732 139.685 457.423 137.522 458.658C135.978 456.496 136.904 452.172 136.904 449.392C136.904 442.288 135.978 441.361 138.449 440.434ZM468.061 439.508C471.768 440.125 470.532 444.759 470.532 452.172C470.532 456.187 470.532 455.261 469.605 456.805C466.516 455.569 467.443 452.481 467.443 448.774C467.443 445.685 467.134 441.979 468.061 439.508ZM146.481 439.508H147.716C148.643 441.052 148.334 441.052 148.334 443.832C148.334 451.245 149.879 455.569 146.172 456.496C144.318 452.79 145.554 445.994 145.554 441.67C145.554 437.963 145.245 440.743 146.481 439.508ZM459.72 438.581C461.574 439.508 461.265 436.419 461.265 445.994C461.265 448.774 461.574 452.481 460.338 454.334C458.485 453.098 459.102 454.643 458.793 451.554C458.485 448.774 458.485 440.743 459.72 438.581ZM156.057 438.581C157.602 440.743 156.984 446.303 156.984 450.936C156.984 454.952 156.984 453.098 155.439 453.716C154.204 451.554 154.512 444.45 154.512 441.67C154.821 437.654 154.512 439.508 156.057 438.581ZM451.071 437.654L451.997 438.89C452.615 441.361 452.924 449.701 451.071 451.554C449.526 449.392 449.835 440.125 451.071 437.654ZM165.324 437.654C165.942 439.508 165.633 442.288 165.633 444.45C165.633 447.23 166.251 450.318 164.398 451.554C164.398 451.245 164.089 450.936 164.089 451.245L163.471 440.125C163.78 436.419 163.471 437.963 165.324 437.654ZM442.73 436.728C443.966 438.581 443.966 444.45 443.657 446.612C443.348 450.318 443.348 448.465 442.73 449.392C441.185 447.23 441.803 447.23 441.803 442.905C441.803 440.125 441.494 438.581 442.73 436.728ZM173.047 436.419C174.592 438.581 174.283 447.539 173.047 449.392C171.812 447.539 172.121 445.685 172.121 442.905L172.429 438.272C172.429 437.037 172.738 437.346 173.047 436.419ZM435.934 435.801L434.698 438.89C435.007 434.566 434.389 437.346 435.934 435.801ZM179.843 435.801L181.079 436.11C181.079 439.199 182.006 444.45 180.77 447.23C179.535 445.994 180.461 448.774 179.843 445.068V435.801ZM428.211 434.875C429.447 436.728 429.447 435.183 429.447 440.125C429.447 440.434 429.447 442.905 429.447 443.214C428.829 446.921 429.138 444.141 428.211 445.685V434.875ZM186.948 434.875C188.493 437.346 187.875 443.214 186.948 445.376C186.64 444.759 186.331 446.921 186.331 440.125C186.331 437.654 185.713 436.419 186.948 434.875ZM422.959 434.566C423.577 435.801 423.577 435.492 423.577 438.89C423.577 440.743 423.577 442.288 423.268 444.45C422.033 441.979 422.65 437.346 422.959 434.566ZM192.818 434.257C193.745 436.419 193.745 441.67 192.818 443.832C191.891 442.288 191.891 441.979 191.891 439.508C191.891 439.199 191.891 436.728 191.891 436.728C192.2 434.257 192.2 435.183 192.818 434.257ZM417.09 433.948C418.635 436.11 418.326 440.434 417.708 442.905L417.09 433.948ZM198.378 433.639C198.996 436.11 199.305 440.125 198.378 442.597C197.143 441.052 197.452 437.346 197.452 435.801C198.069 432.095 197.76 434.566 198.378 433.639ZM413.692 433.33L414.31 441.67C413.692 441.361 411.838 442.288 412.765 435.183L413.383 433.639C413.383 433.639 413.692 433.639 413.692 433.33ZM201.776 433.021C202.394 433.639 202.394 433.33 202.703 434.566V441.67C201.159 439.508 201.776 435.801 201.776 433.021ZM410.294 433.021L409.367 435.183C409.985 431.477 409.367 434.257 410.294 433.021ZM405.969 432.404C407.205 434.257 406.896 437.654 405.969 439.508V432.404ZM252.129 433.33C250.894 431.168 251.821 432.404 251.203 430.55C251.203 430.241 251.203 429.932 251.203 429.932C250.894 429.624 250.894 429.624 250.894 429.315C249.349 424.373 251.512 418.813 253.056 412.326C260.779 382.674 286.11 280.126 289.199 257.887L326.578 258.196C329.358 279.509 341.097 323.987 346.657 346.844C348.202 353.331 365.501 420.975 365.501 426.226L364.266 431.168C364.266 431.168 364.266 431.477 364.266 431.786L363.957 432.095L363.648 433.33C361.485 433.639 359.014 433.33 356.852 433.639C345.731 435.183 323.489 433.948 311.75 433.948L310.205 430.55L308.352 433.639C289.817 435.183 269.738 434.257 252.129 433.33ZM292.597 229.161L323.18 229.47L324.416 244.296L291.362 243.987L292.597 229.161ZM348.511 298.968C346.966 292.79 344.495 286.613 343.259 279.817C340.788 266.227 333.065 226.381 333.683 217.115L348.511 298.968ZM294.76 201.98H321.326L321.944 215.879L294.142 215.571L294.76 201.98ZM358.396 334.18C351.909 316.265 347.893 287.539 344.186 266.844C342.024 254.489 330.903 205.995 332.756 197.038C337.39 219.586 341.715 242.752 345.731 265.3C347.893 276.111 358.396 328.002 358.396 334.18ZM294.451 175.725L321.635 176.034L321.326 188.698H303.718H301.556H294.451V175.725Z" fill="#1C2C58"/>
<g clip-path="url(#clip0_108_103)">
<path fill-rule="evenodd" clip-rule="evenodd" d="M546.276 50.8966L574.442 0.403941L574.845 0L520.122 34.335L546.276 50.8966Z" fill="#2C318D"/>
<path fill-rule="evenodd" clip-rule="evenodd" d="M547.886 12.5222C543.46 14.5419 538.631 16.5616 534.205 18.9852C529.779 21.4089 524.951 23.4286 520.524 25.4483L506.441 32.3153L512.879 50.0887C513.282 49.2808 513.684 46.0493 514.086 44.4335C514.489 42.8177 514.891 40.798 515.294 39.1823C516.501 33.1232 515.294 34.7389 520.927 31.5074C534.205 23.4286 548.288 14.9458 561.969 6.867C563.176 6.46306 569.614 2.8276 570.016 2.01971L547.886 12.5222Z" fill="#6473CE"/>
<path fill-rule="evenodd" clip-rule="evenodd" d="M515.293 50.4926C515.293 50.8966 515.293 50.4926 515.696 50.4926C516.098 50.0887 520.122 46.8572 520.927 46.0493C522.939 44.0296 524.548 42.8177 526.158 41.202L518.915 35.9507L515.293 50.4926Z" fill="#7A7BD6"/>
<path fill-rule="evenodd" clip-rule="evenodd" d="M492.761 56.1478L495.175 55.3399V53.7241C493.968 53.7241 490.749 54.532 490.346 55.3399L490.749 56.5517L492.761 56.1478Z" fill="#7A7BD6"/>
<path fill-rule="evenodd" clip-rule="evenodd" d="M500.808 52.1084L499.601 52.5123L500.003 54.1281L501.21 53.7241L504.832 53.3202L504.429 51.3005L500.808 52.1084Z" fill="#7A7BD6"/>
<path fill-rule="evenodd" clip-rule="evenodd" d="M471.032 74.7291C471.032 74.3251 472.239 71.0936 472.239 70.2857L471.032 69.8818C470.228 70.6897 469.423 73.1133 469.423 74.7291H471.032Z" fill="#7A7BD6"/>
<path fill-rule="evenodd" clip-rule="evenodd" d="M523.743 135.724L525.353 134.916C524.95 133.704 524.146 131.685 523.341 130.473L521.731 131.281L523.743 135.724Z" fill="#7A7BD6"/>
<path fill-rule="evenodd" clip-rule="evenodd" d="M491.151 109.064C491.956 109.468 494.772 111.084 495.577 111.488L496.382 109.872C495.577 109.064 493.163 107.852 491.956 107.448L491.151 109.064Z" fill="#7A7BD6"/>
<path fill-rule="evenodd" clip-rule="evenodd" d="M407.457 149.862C408.664 149.054 410.274 147.842 410.676 146.227L409.469 145.419C409.067 145.823 408.664 146.631 407.859 147.034C407.457 147.438 407.055 148.246 406.652 148.65C406.652 149.054 407.055 149.458 407.457 149.862Z" fill="#7A7BD6"/>
<path fill-rule="evenodd" clip-rule="evenodd" d="M431.197 118.759C429.99 117.951 427.576 117.951 426.369 117.951V119.566L430.795 120.374L431.197 118.759Z" fill="#7A7BD6"/>
<path fill-rule="evenodd" clip-rule="evenodd" d="M472.239 93.7143C472.642 93.7143 473.044 93.3104 473.447 92.9064C473.447 92.5025 471.837 89.6749 471.435 88.867L469.825 89.2709C470.228 90.4828 471.435 92.9064 472.239 93.7143Z" fill="#7A7BD6"/>
<path fill-rule="evenodd" clip-rule="evenodd" d="M515.696 124.01L518.915 127.645L520.122 126.433C520.122 125.626 519.317 125.222 518.512 124.414C518.11 124.01 517.305 123.202 516.903 122.798L515.696 124.01Z" fill="#7A7BD6"/>
<path fill-rule="evenodd" clip-rule="evenodd" d="M419.126 123.202C419.528 122.798 419.528 122.394 420.333 121.586L421.943 120.374L421.138 118.759C419.931 119.163 417.919 121.182 417.516 122.798C417.919 122.798 418.321 123.202 419.126 123.202Z" fill="#7A7BD6"/>
<path fill-rule="evenodd" clip-rule="evenodd" d="M525.755 154.709C526.56 153.901 527.365 151.074 527.365 149.862L525.755 149.458C525.353 150.266 525.353 151.074 525.353 151.882C524.95 152.69 524.548 153.094 524.548 153.901L525.755 154.709Z" fill="#7A7BD6"/>
<path fill-rule="evenodd" clip-rule="evenodd" d="M525.755 144.611H527.365C527.365 142.995 526.962 141.379 526.962 139.764L524.95 140.167L525.755 144.611Z" fill="#7A7BD6"/>
<path fill-rule="evenodd" clip-rule="evenodd" d="M508.855 163.192C510.063 163.596 512.477 163.192 513.684 162.788C513.684 161.98 513.684 161.576 513.282 161.172L508.855 161.576V163.192Z" fill="#7A7BD6"/>
<path fill-rule="evenodd" clip-rule="evenodd" d="M449.706 134.512C450.109 135.32 452.121 137.34 453.328 137.744L454.133 136.532C452.925 135.724 451.718 134.108 450.914 133.301L449.706 134.512Z" fill="#7A7BD6"/>
<path fill-rule="evenodd" clip-rule="evenodd" d="M471.435 153.901C472.239 154.305 474.654 155.921 475.458 156.325L476.263 155.517C476.263 155.113 476.263 155.113 476.263 154.709C475.861 154.305 473.044 152.69 472.642 152.286L471.435 153.901Z" fill="#7A7BD6"/>
<path fill-rule="evenodd" clip-rule="evenodd" d="M512.075 121.182C512.477 120.778 512.879 119.97 512.879 119.566C512.477 119.163 510.063 117.143 509.258 117.143C508.453 117.547 508.453 117.951 508.051 118.355C509.258 119.163 510.867 120.374 512.075 121.182Z" fill="#7A7BD6"/>
<path fill-rule="evenodd" clip-rule="evenodd" d="M475.056 66.6502C475.861 65.4384 477.068 64.2266 478.275 63.4187C477.873 62.6108 477.47 62.6108 477.068 62.2069C476.263 62.2069 473.849 64.6305 473.447 65.4384C474.251 65.8424 474.251 66.2463 475.056 66.6502Z" fill="#7A7BD6"/>
<path fill-rule="evenodd" clip-rule="evenodd" d="M464.997 146.227C464.594 147.034 464.192 147.034 463.79 147.842C464.997 148.65 466.606 150.266 467.411 150.67L468.618 149.458L464.997 146.227Z" fill="#7A7BD6"/>
<path fill-rule="evenodd" clip-rule="evenodd" d="M458.559 142.995C458.961 143.399 459.766 143.803 460.571 144.207L461.375 142.995C460.973 142.591 460.168 141.783 459.766 141.379L458.559 140.167C458.156 139.764 458.559 140.167 457.754 139.764L456.949 140.975C457.352 141.379 458.156 142.187 458.559 142.995Z" fill="#7A7BD6"/>
<path fill-rule="evenodd" clip-rule="evenodd" d="M483.908 102.601C483.506 103.409 483.104 103.409 482.701 104.217C483.908 105.025 485.518 106.236 487.127 106.64L487.932 105.025L483.908 102.601Z" fill="#7A7BD6"/>
<path fill-rule="evenodd" clip-rule="evenodd" d="M481.896 60.5912C482.701 60.5912 485.518 58.9754 486.323 58.5715L485.518 56.9557L481.092 58.9754L481.896 60.5912Z" fill="#7A7BD6"/>
<path fill-rule="evenodd" clip-rule="evenodd" d="M518.513 161.172C520.122 160.769 521.732 159.557 522.939 158.749C522.536 158.345 522.134 157.941 521.732 157.537C520.524 158.749 519.317 158.749 517.708 159.557L518.513 161.172Z" fill="#7A7BD6"/>
<path fill-rule="evenodd" clip-rule="evenodd" d="M436.83 123.202C437.635 124.01 438.038 124.414 438.842 124.818C439.245 124.414 439.647 124.01 440.049 123.202C438.842 122.394 436.83 120.778 435.623 120.778L435.221 121.99C435.623 122.798 436.428 122.798 436.83 123.202Z" fill="#7A7BD6"/>
<path fill-rule="evenodd" clip-rule="evenodd" d="M480.287 158.749C481.494 159.153 483.506 160.365 484.713 160.365L485.115 158.749L480.689 157.133L480.287 158.749Z" fill="#7A7BD6"/>
<path fill-rule="evenodd" clip-rule="evenodd" d="M443.268 128.857C443.671 128.857 444.073 129.261 444.476 129.665C444.878 130.069 445.28 130.473 446.085 131.281L447.292 129.665C446.487 128.857 444.476 126.837 443.671 126.433L442.866 127.645C442.866 127.645 443.268 128.453 443.268 128.857Z" fill="#7A7BD6"/>
<path fill-rule="evenodd" clip-rule="evenodd" d="M475.458 97.7537C475.458 98.5616 477.873 100.985 479.08 100.985L479.884 99.7734L476.263 96.5419C475.861 96.9458 475.861 96.9458 475.458 97.7537Z" fill="#7A7BD6"/>
<path fill-rule="evenodd" clip-rule="evenodd" d="M413.895 136.936L412.286 136.532L411.078 141.379L413.09 141.783L413.895 136.936Z" fill="#7A7BD6"/>
<path fill-rule="evenodd" clip-rule="evenodd" d="M468.618 84.4236H470.228V79.5764H468.618V84.4236Z" fill="#7A7BD6"/>
<path fill-rule="evenodd" clip-rule="evenodd" d="M397.8 150.266L397.398 152.286L400.214 151.882H402.226V150.266H397.8Z" fill="#7A7BD6"/>
<path fill-rule="evenodd" clip-rule="evenodd" d="M417.114 127.645L415.505 127.241L413.895 131.685L415.505 132.089L417.114 127.645Z" fill="#7A7BD6"/>
<path fill-rule="evenodd" clip-rule="evenodd" d="M493.968 163.192L494.37 161.172L489.944 160.365L489.542 161.98L493.968 163.192Z" fill="#7A7BD6"/>
<path fill-rule="evenodd" clip-rule="evenodd" d="M500.003 113.507L504.027 115.931L504.832 114.315L500.406 111.892L500.003 113.507Z" fill="#7A7BD6"/>
<path fill-rule="evenodd" clip-rule="evenodd" d="M499.198 163.596H500.406H504.027L503.625 161.98H501.21H499.198C499.198 162.788 499.198 162.788 499.198 163.596Z" fill="#7A7BD6"/>
<path fill-rule="evenodd" clip-rule="evenodd" d="M511.672 50.0887C508.453 50.0887 509.258 50.8966 509.258 52.1084H511.672V50.0887Z" fill="#7A7BD6"/>
<path fill-rule="evenodd" clip-rule="evenodd" d="M390.156 151.882H392.57V150.266H390.156V151.882Z" fill="#7A7BD6"/>
<path fill-rule="evenodd" clip-rule="evenodd" d="M500.406 163.596C500.808 164 502.82 164 504.027 163.596C504.027 163.192 504.027 162.788 504.027 161.98H501.21H503.625L504.027 163.596H500.406Z" fill="#7A7BD6"/>
<path fill-rule="evenodd" clip-rule="evenodd" d="M400.214 151.882L397.398 152.286L397.8 150.266C397.398 150.67 397.398 150.266 397.398 150.67V152.286C398.203 152.69 399.812 152.286 400.214 151.882Z" fill="#7A7BD6"/>
<path fill-rule="evenodd" clip-rule="evenodd" d="M499.199 163.596C499.199 162.788 499.199 162.788 499.199 161.98H501.21L499.199 161.576C499.199 161.98 498.796 162.788 498.796 162.788C498.796 164 498.796 163.596 499.199 163.596Z" fill="#7A7BD6"/>
<path fill-rule="evenodd" clip-rule="evenodd" d="M572.833 0.403931L483.506 25.0443C485.115 25.0443 492.358 27.064 494.37 27.8719C495.979 28.2759 504.027 30.6995 505.234 30.2956L572.833 0.403931Z" fill="#3338A1"/>
</g>
<defs>
<clipPath id="clip0_108_103">
<rect width="185" height="164" fill="white" transform="translate(390)"/>
</clipPath>
</defs>
</svg>
