<svg width="30" height="30" viewBox="0 0 30 30" fill="none" xmlns="http://www.w3.org/2000/svg">
<path d="M27.3011 7.63536V27.1142C27.3011 28.7054 26.0065 30 24.4153 30H11.2491C9.65791 30 8.36334 28.7054 8.36334 27.1142V14.4487C8.77498 14.5172 9.1949 14.5616 9.62585 14.5616C9.93146 14.5616 10.2314 14.5389 10.5277 14.5038V27.1142C10.5277 27.5119 10.8512 27.8356 11.2491 27.8356H24.4153C24.8131 27.8356 25.1367 27.5119 25.1367 27.1142V7.63536C25.1367 7.23749 24.813 6.91394 24.4153 6.91394H17.2735C17.2735 6.16152 17.1605 5.43634 16.9579 4.74966H24.4153C26.0065 4.7496 27.3011 6.04417 27.3011 7.63536ZM9.50534 13.6121C5.75233 13.6121 2.69922 10.559 2.69922 6.80612C2.69928 3.05311 5.75233 0 9.50534 0C13.2582 0 16.3115 3.05311 16.3115 6.80612C16.3115 10.559 13.2582 13.6121 9.50534 13.6121ZM9.50534 12.1692C12.4624 12.1692 14.8684 9.76358 14.8684 6.80612C14.8684 3.84849 12.4628 1.44291 9.50534 1.44291C6.54777 1.44291 4.14213 3.84849 4.14213 6.80612C4.14213 9.76358 6.54813 12.1692 9.50534 12.1692ZM13.5872 7.52761C13.9854 7.52761 14.3086 7.20441 14.3086 6.80618C14.3086 6.40796 13.9854 6.08476 13.5872 6.08476H10.2268V3.2527C10.2268 2.85447 9.90357 2.53127 9.50534 2.53127C9.10711 2.53127 8.78392 2.85447 8.78392 3.2527V6.80618C8.78392 7.20441 9.10711 7.52761 9.50534 7.52761H13.5872ZM21.9139 13.377H14.0983C13.7001 13.377 13.3769 13.7002 13.3769 14.0984C13.3769 14.4967 13.7001 14.8198 14.0983 14.8198H21.9139C22.3123 14.8198 22.6353 14.4966 22.6353 14.0984C22.6354 13.7002 22.3123 13.377 21.9139 13.377ZM21.9266 17.7531H14.111C13.7128 17.7531 13.3896 18.0761 13.3896 18.4745C13.3896 18.873 13.7128 19.196 14.111 19.196H21.9266C22.325 19.196 22.648 18.873 22.648 18.4745C22.648 18.0761 22.3254 17.7531 21.9266 17.7531ZM21.9266 22.3104H14.111C13.7128 22.3104 13.3896 22.6338 13.3896 23.0318C13.3896 23.4302 13.7128 23.7532 14.111 23.7532H21.9266C22.325 23.7532 22.648 23.4302 22.648 23.0318C22.648 22.6337 22.3254 22.3104 21.9266 22.3104Z" fill="#2C318D"/>
</svg>
