<svg width="393" height="340" viewBox="0 0 393 340" fill="none" xmlns="http://www.w3.org/2000/svg">
<g clip-path="url(#clip0_304_20)">
<path fill-rule="evenodd" clip-rule="evenodd" d="M56.3447 311.201C131.598 349.507 253.29 349.507 328.543 311.201C403.516 272.895 403.516 210.543 328.543 172.237C253.29 133.931 131.598 133.931 56.3447 172.237C18.8581 191.53 0.114746 216.694 0.114746 241.859C0.114746 266.743 18.8581 291.908 56.3447 311.201Z" fill="#EEEEEE"/>
<path fill-rule="evenodd" clip-rule="evenodd" d="M301.967 249.967C306.163 252.204 314.276 251.365 320.15 248.01L354 228.438C359.875 225.082 361.274 220.329 357.078 218.092C352.881 215.576 344.769 216.414 338.894 219.77L305.324 239.342C299.449 242.977 298.05 247.451 301.967 249.967Z" fill="#E5E4E4"/>
<path fill-rule="evenodd" clip-rule="evenodd" d="M98.5871 267.862L64.1777 248.289L98.5871 228.438V267.862Z" fill="#E5E4E4"/>
<path fill-rule="evenodd" clip-rule="evenodd" d="M195.661 279.885L140.27 247.73L195.941 215.855L195.661 279.885Z" fill="#E5E4E4"/>
<path fill-rule="evenodd" clip-rule="evenodd" d="M52.1487 221.727C52.1487 213.618 46.5536 196.842 38.4409 186.217C30.0483 175.872 17.1798 168.043 7.66823 171.118C-1.00405 173.914 -0.164801 185.378 10.4657 192.928C20.8165 200.757 36.4826 210.263 40.9586 223.405L50.4702 239.622L52.1487 221.727Z" fill="#5AC2B2"/>
<path fill-rule="evenodd" clip-rule="evenodd" d="M47.1127 233.75L40.9581 223.405C36.4821 210.263 20.816 200.757 10.4653 192.928C4.59048 188.734 1.79297 183.701 1.79297 179.227C1.79297 175.592 3.75123 172.516 7.66774 171.118C9.0665 170.559 10.745 170.28 12.1438 170.28C20.816 170.28 31.4466 177.27 38.4404 186.217C41.7974 190.691 44.8746 196.283 47.1127 201.595V233.75Z" fill="#2D3980"/>
<path fill-rule="evenodd" clip-rule="evenodd" d="M52.708 232.632C52.4283 232.632 52.1485 232.352 52.1485 232.072C47.113 204.671 25.0127 182.023 11.8644 176.99C11.5846 176.99 11.3049 176.431 11.5846 176.151C11.5846 175.872 11.8644 175.872 12.1441 175.872C25.8519 181.184 48.232 204.112 53.2676 231.793C53.2676 232.352 52.9878 232.632 52.708 232.632Z" fill="#FEFEFE"/>
<path fill-rule="evenodd" clip-rule="evenodd" d="M48.2317 250.247C47.1127 245.493 41.5177 237.944 32.8454 231.793C23.0541 224.803 10.4653 221.727 7.66777 216.135C4.31076 209.984 9.62603 203.832 19.9768 205.23C30.0479 206.628 47.6722 220.609 50.19 241.579L48.2317 250.247Z" fill="#2D3980"/>
<path fill-rule="evenodd" clip-rule="evenodd" d="M50.1905 245.493C50.1905 245.493 49.9108 245.214 49.9108 244.934C41.798 221.447 23.8939 213.059 15.5014 211.661C15.2216 211.661 14.9419 211.382 14.9419 211.102C15.2216 210.822 15.5014 210.543 15.7811 210.543C25.0129 211.941 42.6373 220.609 51.0298 244.655C51.0298 244.934 50.75 245.214 50.4703 245.493C50.4703 245.493 50.4703 245.493 50.1905 245.493Z" fill="#FEFEFE"/>
<path fill-rule="evenodd" clip-rule="evenodd" d="M352.042 198.799C352.042 198.799 353.44 181.743 363.232 169.161C373.303 156.579 372.743 151.546 365.75 149.03C358.756 146.513 342.81 161.612 346.447 181.743C350.083 202.155 352.042 198.799 352.042 198.799Z" fill="#5AC2B2"/>
<path fill-rule="evenodd" clip-rule="evenodd" d="M351.762 199.079C350.923 199.079 349.244 197.122 346.447 181.743C346.167 179.786 345.887 177.829 345.887 176.151C345.887 160.214 357.357 148.75 364.071 148.75C364.631 148.75 365.19 148.75 365.75 149.03C369.107 150.148 370.785 151.826 370.785 154.901C370.785 157.977 368.547 162.451 363.232 169.161C353.441 181.743 352.042 198.799 352.042 198.799C352.042 198.799 352.042 199.079 351.762 199.079Z" fill="#2D3980"/>
<path fill-rule="evenodd" clip-rule="evenodd" d="M349.244 189.013C348.965 189.013 348.685 189.013 348.685 188.734C347.566 170 360.714 154.622 365.75 151.266C365.75 151.266 366.029 151.266 366.309 151.266C366.309 151.546 366.309 151.826 366.029 151.826C361.274 155.181 348.405 170.28 349.524 188.734L349.244 189.013Z" fill="#FEFEFE"/>
<path fill-rule="evenodd" clip-rule="evenodd" d="M349.524 212.78C349.524 212.78 355.399 214.737 363.232 216.135C371.065 217.253 374.422 213.618 374.422 213.618C374.422 213.618 371.345 206.349 366.869 204.391C366.869 204.391 374.422 205.789 380.297 209.704C380.297 209.704 385.053 209.984 387.011 202.714C387.011 202.714 384.213 198.24 374.702 196.003C374.702 196.003 380.577 194.605 388.689 196.563C389.249 196.842 392.046 187.615 392.886 183.141C393.445 178.947 391.767 178.947 388.41 178.109C385.053 177.27 374.142 174.753 371.904 176.711C369.946 178.388 368.827 184.819 368.827 184.819C368.827 184.819 367.428 180.905 368.547 176.711C368.547 176.711 365.47 175.592 360.714 176.99C356.798 178.109 356.798 180.625 356.798 183.701C357.077 185.658 357.637 187.895 358.476 190.97C358.476 190.97 355.679 187.336 355.399 178.947C355.399 178.947 347.566 182.862 346.167 190.691C345.608 194.885 344.489 207.188 349.524 212.78Z" fill="#2D3980"/>
<path fill-rule="evenodd" clip-rule="evenodd" d="M350.923 211.102C351.202 211.102 351.202 211.102 351.202 211.102C357.637 197.961 380.856 182.862 388.969 181.464C389.249 181.184 389.528 181.184 389.528 180.905C389.528 180.625 389.249 180.345 388.969 180.345C380.576 182.023 356.797 197.401 350.643 210.543C350.363 210.822 350.643 211.102 350.643 211.102H350.923Z" fill="#FEFEFE"/>
<path fill-rule="evenodd" clip-rule="evenodd" d="M49.0711 256.118C48.2319 256.118 47.6724 255.28 47.6724 253.882V111.842L221.957 11.1842V152.944C221.957 154.901 220.279 157.697 218.6 158.816L50.4699 255.559C49.9104 255.839 49.6306 256.118 49.0711 256.118Z" fill="#F7F5F5"/>
<path fill-rule="evenodd" clip-rule="evenodd" d="M222.517 10.3454L47.1128 111.563V253.882C47.1128 255.559 47.952 256.678 49.0711 256.678C49.6306 256.678 50.1901 256.398 50.7496 256.118L218.6 159.095C220.838 157.977 222.517 155.181 222.517 152.944V10.3454ZM221.398 12.023V152.944C221.398 154.901 219.999 157.418 218.321 158.257L50.1901 255.28C49.9103 255.559 49.3508 255.559 49.0711 255.559C48.2318 255.559 47.952 254.441 47.952 253.882V112.122L221.398 12.023Z" fill="#D7D9D9"/>
<path fill-rule="evenodd" clip-rule="evenodd" d="M47.1128 111.563V135.329L222.517 34.1118V10.3454L47.1128 111.563Z" fill="#2D3980"/>
<path fill-rule="evenodd" clip-rule="evenodd" d="M60.8208 112.681V116.036C60.8208 116.875 61.3803 117.155 61.9398 116.875L115.932 85.5592V79.6875L61.9398 110.724C61.3803 111.283 60.8208 112.122 60.8208 112.681Z" fill="#F7F5F5"/>
<path fill-rule="evenodd" clip-rule="evenodd" d="M121.527 76.3322C122.086 76.0526 122.646 76.3322 122.646 76.8914V80.5263C122.646 81.0855 122.086 81.9244 121.527 82.204L115.932 85.5592V79.6875L121.527 76.3322Z" fill="#4C5F68"/>
<path fill-rule="evenodd" clip-rule="evenodd" d="M47.1128 103.734C47.1128 101.497 48.7913 98.7007 50.7496 97.3026L218.6 0.559211C219.44 0.279605 219.999 0 220.279 0C221.678 0 222.517 0.838816 222.517 2.51645V10.3454L47.1128 111.562V103.734Z" fill="#4C5F68"/>
<path fill-rule="evenodd" clip-rule="evenodd" d="M202.934 13.7007C201.815 14.2599 201.256 15.3783 201.256 16.4967C201.256 17.6151 201.815 18.1743 202.934 17.6151C203.774 17.0559 204.613 15.6579 204.613 14.5395C204.613 13.4211 203.774 13.1414 202.934 13.7007Z" fill="#CCCCFF"/>
<path fill-rule="evenodd" clip-rule="evenodd" d="M208.25 10.3454C207.411 10.9046 206.571 12.3026 206.571 13.4211C206.571 14.5395 207.411 15.0987 208.25 14.5395C209.369 13.9803 209.928 12.5822 209.928 11.4638C209.928 10.3454 209.369 9.78619 208.25 10.3454Z" fill="#CCCCFF"/>
<path fill-rule="evenodd" clip-rule="evenodd" d="M213.845 7.26974C212.726 7.82895 212.166 9.22697 212.166 10.3454C212.166 11.4638 212.726 11.7434 213.845 11.1842C214.684 10.625 215.523 9.50658 215.523 8.38816C215.523 7.26974 214.684 6.71052 213.845 7.26974Z" fill="#CCCCFF"/>
<path fill-rule="evenodd" clip-rule="evenodd" d="M165.728 58.7171C164.609 58.7171 163.49 57.8783 163.49 56.2007C163.49 53.6842 165.448 50.8882 167.406 49.4901C167.966 49.2105 168.525 49.2105 169.085 49.2105C170.204 49.2105 171.043 50.0493 171.043 51.727C171.043 54.2434 169.365 57.0395 167.406 58.1579C166.847 58.7171 166.287 58.7171 165.728 58.7171Z" fill="#CCCCFF"/>
<path fill-rule="evenodd" clip-rule="evenodd" d="M148.383 68.7829C147.264 68.7829 146.425 67.6645 146.425 65.9868C146.425 63.75 148.103 60.6743 150.062 59.5559C150.901 59.2763 151.46 58.9967 151.74 58.9967C153.139 58.9967 153.978 60.1151 153.978 61.7928C153.978 64.0296 152.3 67.1053 150.062 68.2237C149.502 68.5033 148.943 68.7829 148.383 68.7829Z" fill="#CCCCFF"/>
<path fill-rule="evenodd" clip-rule="evenodd" d="M182.792 48.9309C181.673 48.9309 180.834 47.8125 180.834 46.1349C180.834 43.898 182.512 40.8224 184.471 39.704C185.31 39.4243 185.87 39.1447 186.149 39.1447C187.548 39.1447 188.387 40.2632 188.387 41.9408C188.387 44.1776 186.709 47.2533 184.471 48.3717C183.911 48.6513 183.352 48.9309 182.792 48.9309Z" fill="#CCCCFF"/>
<path fill-rule="evenodd" clip-rule="evenodd" d="M200.137 38.8651C198.738 38.8651 197.899 38.0263 197.899 36.3487C197.899 33.8322 199.577 31.0362 201.815 29.6381C202.375 29.3585 202.934 29.3585 203.494 29.3585C204.613 29.3585 205.452 30.1974 205.452 31.875C205.452 34.3914 203.774 37.1875 201.815 38.3059C201.256 38.8651 200.696 38.8651 200.137 38.8651Z" fill="#CCCCFF"/>
<path fill-rule="evenodd" clip-rule="evenodd" d="M64.4576 137.007L105.301 113.52C107.259 112.401 108.938 113.24 108.938 115.757V154.901C108.938 157.138 107.259 159.934 105.301 161.053L64.4576 184.819C62.4993 185.937 60.8208 184.819 60.8208 182.582V143.437C60.8208 141.201 62.4993 138.405 64.4576 137.007Z" fill="#D7D9D9"/>
<path fill-rule="evenodd" clip-rule="evenodd" d="M122.925 103.454L208.529 53.9638C210.487 52.8454 212.166 53.9638 212.166 56.2007V95.3454C212.166 97.5822 210.487 100.378 208.529 101.776L122.925 150.987C120.967 152.105 119.289 151.266 119.289 148.75V109.605C119.289 107.368 120.967 104.572 122.925 103.454Z" fill="#D7D9D9"/>
<path fill-rule="evenodd" clip-rule="evenodd" d="M64.4576 196.563L129.36 159.095C131.318 157.977 132.997 158.816 132.997 161.053C132.997 163.289 131.318 166.086 129.36 167.204L64.4576 204.671C62.4993 205.789 60.8208 204.951 60.8208 202.714C60.8208 200.477 62.4993 197.681 64.4576 196.563Z" fill="#D7D9D9"/>
<path fill-rule="evenodd" clip-rule="evenodd" d="M64.4576 210.543L129.36 173.076C131.318 171.957 132.997 172.796 132.997 175.033C132.997 176.99 131.318 179.786 129.36 180.905L64.4576 218.372C62.4993 219.49 60.8208 218.651 60.8208 216.694C60.8208 214.457 62.4993 211.661 64.4576 210.543Z" fill="#D7D9D9"/>
<path fill-rule="evenodd" clip-rule="evenodd" d="M64.4576 224.243L129.36 187.056C131.318 185.658 132.997 186.497 132.997 188.734C132.997 190.97 131.318 193.766 129.36 194.885L64.4576 232.352C62.4993 233.47 60.8208 232.632 60.8208 230.395C60.8208 228.158 62.4993 225.641 64.4576 224.243Z" fill="#D7D9D9"/>
<path fill-rule="evenodd" clip-rule="evenodd" d="M95.2305 177.27C95.2305 175.872 96.0697 174.194 97.4685 173.635L209.928 108.487C211.047 107.928 213.006 107.928 214.404 108.487L216.642 109.885C218.041 110.724 218.88 112.401 218.88 113.799V199.918C218.88 201.316 218.041 202.993 216.642 203.832L104.183 268.701C103.063 269.54 101.105 269.54 99.9862 268.701L97.4685 267.303C96.0697 266.464 95.2305 264.786 95.2305 263.388V177.27Z" fill="#2D3980"/>
<path fill-rule="evenodd" clip-rule="evenodd" d="M95.7896 175.033C96.0693 174.753 96.6288 174.194 96.9086 173.914C96.6288 174.194 96.0693 174.753 95.7896 175.033ZM217.202 110.444C217.202 110.164 216.922 110.164 216.642 109.885L215.803 109.605L216.642 109.885C216.922 110.164 217.202 110.164 217.202 110.444ZM211.047 108.207C211.327 108.207 211.607 108.207 212.166 108.207C212.446 108.207 212.726 108.207 213.005 108.207C212.726 108.207 212.446 108.207 212.166 108.207C211.607 108.207 211.327 108.207 211.047 108.207Z" fill="#F9F8F8"/>
<path fill-rule="evenodd" clip-rule="evenodd" d="M101.944 178.668L95.7896 175.033C96.0693 174.753 96.6288 174.194 96.9086 173.914C97.1883 173.635 97.1883 173.635 97.4681 173.355L209.928 108.487C210.208 108.487 210.487 108.207 211.047 108.207C211.327 108.207 211.607 108.207 212.166 108.207C212.446 108.207 212.726 108.207 213.005 108.207C213.285 108.207 213.845 108.487 214.404 108.487L215.803 109.605L216.642 109.885C216.922 110.164 217.202 110.164 217.202 110.444C217.761 110.724 218.041 111.283 218.321 111.562L101.944 178.668Z" fill="#354C93"/>
<path fill-rule="evenodd" clip-rule="evenodd" d="M96.3495 266.464C95.79 265.625 95.2305 264.507 95.2305 263.388V230.395V263.388C95.2305 264.507 95.79 265.625 96.3495 266.464Z" fill="#CCCDCC"/>
<path fill-rule="evenodd" clip-rule="evenodd" d="M95.2305 206.628V200.757V206.628ZM95.2305 192.648V186.776V192.648ZM95.2305 178.947V177.27C95.2305 176.711 95.5102 175.872 95.79 175.033C95.5102 175.872 95.2305 176.711 95.2305 177.27V178.947Z" fill="#D9DAD9"/>
<path fill-rule="evenodd" clip-rule="evenodd" d="M101.944 269.26C101.944 269.26 101.665 269.26 101.385 269.26C101.105 269.26 100.825 268.98 100.546 268.98C100.266 268.98 99.9862 268.701 99.9862 268.701L97.4685 267.303C97.1887 267.023 96.6292 266.743 96.3495 266.464C95.79 265.625 95.2305 264.507 95.2305 263.388V230.395V229.276V214.457V206.628V200.757V192.648V186.776V178.947V177.27C95.2305 176.711 95.5102 175.872 95.79 175.033L101.944 178.668L103.343 179.507C102.504 179.786 101.944 180.345 101.944 181.184V267.303C101.944 268.141 102.224 268.701 102.784 268.98C102.784 268.98 103.063 268.98 103.343 268.98C103.343 268.98 103.623 268.98 103.903 268.98C103.623 268.98 103.623 268.98 103.623 268.98C103.343 268.98 103.343 268.98 103.063 268.98C102.784 269.26 102.504 269.26 101.944 269.26Z" fill="#354C93"/>
<path fill-rule="evenodd" clip-rule="evenodd" d="M218.321 111.842L218.601 111.562L218.321 111.842Z" fill="#BEC1C1"/>
<path fill-rule="evenodd" clip-rule="evenodd" d="M102.784 268.98C102.224 268.701 101.944 268.141 101.944 267.303V265.905L146.705 198.52L101.944 178.668L154.258 198.24C155.097 198.52 156.216 198.799 157.055 198.799C159.853 198.799 162.65 197.401 164.329 194.885L172.721 182.023L218.321 111.842L174.12 182.582L218.88 199.918C218.88 200.757 218.601 201.595 218.321 202.155L174.12 182.862L164.329 198.24C162.93 200.757 160.133 202.155 157.335 202.155C155.936 202.155 154.817 202.155 153.698 201.595L146.984 198.52L102.784 268.98Z" fill="#CCCCFF"/>
<path fill-rule="evenodd" clip-rule="evenodd" d="M194.822 79.6875V277.648C194.822 279.885 196.5 281.003 198.459 279.885L287.419 228.438C289.378 227.319 291.056 224.523 291.056 222.007V24.3256C291.056 21.8092 289.378 20.9704 287.419 22.0888L198.459 73.5362C196.5 74.6546 194.822 77.4507 194.822 79.6875Z" fill="#F7F5F5"/>
<path fill-rule="evenodd" clip-rule="evenodd" d="M194.822 79.6875H194.262V277.648C194.262 278.487 194.542 279.326 195.101 279.885C195.381 280.444 196.22 280.724 196.78 280.724C197.619 280.724 198.179 280.444 198.738 280.164L287.699 228.997C288.818 228.158 289.657 227.039 290.497 225.921C291.056 224.803 291.616 223.405 291.616 222.007V24.3257C291.616 23.4868 291.336 22.648 291.056 22.0888C290.497 21.5296 289.937 21.25 289.098 21.25C288.538 21.25 287.979 21.25 287.14 21.8092L198.179 72.977C197.06 73.8158 196.22 74.6546 195.661 76.0526C194.822 77.1711 194.262 78.5691 194.262 79.6875H194.822H195.381C195.381 78.8487 195.661 77.4507 196.5 76.3322C197.06 75.4934 197.899 74.375 198.738 73.8158L287.699 22.648C288.259 22.3684 288.818 22.0888 289.098 22.0888C289.657 22.0888 289.937 22.3684 290.217 22.648C290.497 22.9276 290.776 23.4868 290.776 24.3257V222.007C290.776 223.125 290.217 224.243 289.657 225.362C289.098 226.48 288.259 227.599 287.14 227.878L198.179 279.326C197.899 279.605 197.339 279.885 196.78 279.885C196.5 279.885 196.22 279.605 195.941 279.326C195.661 279.046 195.381 278.487 195.381 277.648V79.6875H194.822Z" fill="#D7D9D9"/>
<path fill-rule="evenodd" clip-rule="evenodd" d="M200.137 83.602C200.137 83.0428 200.417 82.204 200.976 81.9243L211.047 76.0526C211.607 75.773 212.166 76.0526 212.166 76.6118C212.166 77.1711 211.607 77.7303 211.047 78.0099L200.976 83.8816C200.417 84.1612 200.137 84.1612 200.137 83.602Z" fill="#4C5F68"/>
<path fill-rule="evenodd" clip-rule="evenodd" d="M200.137 87.5165C200.137 86.9572 200.417 86.1184 200.976 85.8388L211.047 79.9671C211.607 79.6875 212.166 79.9671 212.166 80.5263C212.166 81.0855 211.607 81.6447 211.047 81.9243L200.976 87.7961C200.417 88.0757 200.137 88.0757 200.137 87.5165Z" fill="#4C5F68"/>
<path fill-rule="evenodd" clip-rule="evenodd" d="M200.137 91.4309C200.137 90.8717 200.417 90.0329 200.976 89.7533L211.047 83.8816C211.607 83.602 212.166 83.8816 212.166 84.4408C212.166 85 211.607 85.5592 211.047 85.8388L200.976 91.7105C200.417 91.9901 200.137 91.9901 200.137 91.4309Z" fill="#4C5F68"/>
<path fill-rule="evenodd" clip-rule="evenodd" d="M279.027 45.5756C277.628 46.4145 276.509 45.8552 276.509 44.1776C276.509 42.7796 277.628 41.102 279.027 40.2631C280.146 39.4243 281.265 40.2631 281.265 41.6612C281.265 43.0592 280.146 45.0164 279.027 45.5756ZM284.342 40.5427V39.1447C284.342 38.8651 284.062 38.8651 284.062 38.8651L282.943 39.4243C282.663 39.4243 282.663 39.4243 282.663 39.4243C282.663 39.1447 282.384 38.8651 282.384 38.8651V38.5855L283.223 36.9079V36.6283L282.384 36.0691C282.104 36.0691 282.104 36.0691 282.104 36.0691L280.985 37.7467H280.705C280.425 37.7467 280.425 37.7467 280.146 38.0263C279.866 38.0263 279.866 37.7467 279.866 37.7467V36.3487H279.586L278.187 37.1875C278.187 37.1875 278.187 37.1875 278.187 37.4671L277.908 38.8651C277.908 39.1447 277.908 39.1447 277.908 39.1447C277.628 39.4243 277.348 39.7039 277.068 39.9835C277.068 39.9835 276.789 40.2631 276.789 39.9835L275.949 39.7039C275.67 39.7039 275.67 39.7039 275.67 39.9835L274.551 41.6612V41.9408L275.39 42.5V42.7796C275.39 43.0592 275.11 43.3388 275.11 43.898C275.11 43.898 275.11 44.1776 274.83 44.1776L273.711 45.0164C273.711 45.0164 273.432 45.0164 273.432 45.296V46.6941C273.432 46.9737 273.711 46.9737 273.711 46.9737L274.83 46.4145C275.11 46.4145 275.11 46.4145 275.11 46.4145C275.11 46.6941 275.39 46.9737 275.39 46.9737C275.39 47.2533 275.39 47.2533 275.39 47.2533L274.551 48.9309C274.551 49.2105 274.551 49.2105 274.551 49.2105L275.67 49.7697L276.789 48.0921H277.068C277.348 48.0921 277.628 48.0921 277.628 48.0921C277.908 48.0921 277.908 48.0921 277.908 48.0921L278.187 49.4901L279.586 48.6513C279.586 48.6513 279.866 48.6513 279.866 48.3717V46.9737C279.866 46.9737 279.866 46.6941 280.146 46.6941C280.425 46.4145 280.425 46.1348 280.705 45.8552C280.985 45.8552 280.985 45.8552 280.985 45.8552L281.824 46.1348C282.104 46.1348 282.104 46.1348 282.104 46.1348L283.223 44.1776C283.223 44.1776 283.223 44.1776 283.223 43.898L282.384 43.3388C282.384 43.3388 282.384 43.3388 282.384 43.0592C282.384 42.7796 282.663 42.5 282.663 41.9408C282.663 41.9408 282.663 41.9408 282.943 41.6612L284.062 40.8223C284.062 40.8223 284.342 40.8223 284.342 40.5427Z" fill="#405057"/>
<path fill-rule="evenodd" clip-rule="evenodd" d="M242.939 79.6875C253.289 73.5362 261.962 78.5691 261.962 90.5921C261.962 102.615 253.289 117.155 242.939 123.026C232.588 129.178 224.195 124.145 224.195 112.122C224.195 100.099 232.588 85.5592 242.939 79.6875Z" fill="#CCCCCC"/>
<path fill-rule="evenodd" clip-rule="evenodd" d="M242.939 89.1941C246.296 87.2369 249.094 88.6349 249.094 92.5494C249.094 96.4638 246.296 101.217 242.939 103.174C239.582 105.132 236.785 103.454 236.785 99.5395C236.785 95.625 239.582 91.1513 242.939 89.1941Z" fill="#2D3980"/>
<path fill-rule="evenodd" clip-rule="evenodd" d="M254.968 109.885C254.968 103.454 250.492 100.937 244.897 104.013L241.54 105.97C235.945 109.326 231.469 116.875 231.469 123.306V125.263C232.308 125.543 233.427 125.543 234.547 125.543C237.064 125.543 239.862 124.704 242.939 123.026C247.415 120.51 251.611 116.316 254.968 111.283V109.885Z" fill="#2D3980"/>
<path fill-rule="evenodd" clip-rule="evenodd" d="M226.154 140.921L260.003 121.349C261.122 120.789 261.962 121.069 261.962 122.188C261.962 123.306 261.122 124.704 260.003 125.263L226.154 144.836C225.035 145.395 224.195 145.115 224.195 143.997C224.195 142.878 225.035 141.48 226.154 140.921Z" fill="#2D3980"/>
<path fill-rule="evenodd" clip-rule="evenodd" d="M222.517 154.901L263.64 131.135C264.759 130.576 265.598 130.855 265.598 131.974C265.598 133.092 264.759 134.49 263.64 135.049L222.517 158.816C221.398 159.375 220.559 159.095 220.559 157.977C220.559 156.859 221.398 155.461 222.517 154.901Z" fill="#4C5F68"/>
<path fill-rule="evenodd" clip-rule="evenodd" d="M264.759 150.428L276.229 143.717C276.788 143.158 277.348 143.438 277.348 143.997C277.348 144.556 276.788 145.395 276.229 145.674L264.759 152.385C264.2 152.664 263.64 152.385 263.64 151.826C263.64 151.266 264.2 150.707 264.759 150.428Z" fill="#405057"/>
<path fill-rule="evenodd" clip-rule="evenodd" d="M207.131 179.507L223.916 169.72C225.035 169.161 225.874 169.72 225.874 170.839V182.582C225.874 183.701 225.035 185.099 223.916 185.658L207.131 195.444C206.012 196.003 205.172 195.724 205.172 194.326V182.862C205.172 181.743 206.012 180.345 207.131 179.507Z" fill="#2D3980"/>
<path fill-rule="evenodd" clip-rule="evenodd" d="M209.648 181.184L221.398 174.474C221.957 174.194 222.517 174.474 222.517 175.033C222.517 175.592 221.957 176.151 221.398 176.711L209.648 183.141C209.089 183.701 208.529 183.421 208.529 182.862C208.529 182.303 209.089 181.743 209.648 181.184Z" fill="#F7F5F5"/>
<path fill-rule="evenodd" clip-rule="evenodd" d="M208.529 187.056V190.411C208.529 191.25 209.089 191.53 209.648 191.25L221.398 184.539C221.957 184.26 222.517 183.421 222.517 182.582V179.227C222.517 178.388 221.957 178.109 221.398 178.668L209.648 185.099C209.089 185.658 208.529 186.497 208.529 187.056Z" fill="#F7F5F5"/>
<path fill-rule="evenodd" clip-rule="evenodd" d="M234.546 163.849L251.611 154.063C252.45 153.503 253.289 153.783 253.289 154.901V166.645C253.289 167.763 252.45 169.161 251.611 169.72L234.546 179.507C233.427 180.345 232.588 179.786 232.588 178.668V166.924C232.588 165.806 233.427 164.408 234.546 163.849Z" fill="#2D3980"/>
<path fill-rule="evenodd" clip-rule="evenodd" d="M237.344 165.526L248.813 158.816C249.373 158.257 249.932 158.536 249.932 159.095C249.932 159.655 249.373 160.493 248.813 160.773L237.344 167.484C236.504 167.763 236.225 167.484 236.225 166.924C236.225 166.365 236.504 165.806 237.344 165.526Z" fill="#F7F5F5"/>
<path fill-rule="evenodd" clip-rule="evenodd" d="M236.225 171.398V174.753C236.225 175.312 236.504 175.592 237.344 175.312L248.813 168.602C249.373 168.322 249.932 167.484 249.932 166.645V163.289C249.932 162.73 249.373 162.451 248.813 162.73L237.344 169.441C236.504 169.72 236.225 170.559 236.225 171.398Z" fill="#F7F5F5"/>
<path fill-rule="evenodd" clip-rule="evenodd" d="M261.962 147.911L279.027 138.125C279.866 137.566 280.705 138.125 280.705 139.243V150.707C280.705 152.105 279.866 153.503 279.027 154.063L261.962 163.849C261.122 164.408 260.283 163.849 260.283 162.73V150.987C260.283 149.868 261.122 148.47 261.962 147.911Z" fill="#2D3980"/>
<path fill-rule="evenodd" clip-rule="evenodd" d="M264.759 149.589L276.229 142.878C276.788 142.599 277.348 142.599 277.348 143.158C277.348 143.717 276.788 144.556 276.229 144.836L264.759 151.546C264.2 151.826 263.64 151.826 263.64 151.266C263.64 150.707 264.2 149.868 264.759 149.589Z" fill="#F7F5F5"/>
<path fill-rule="evenodd" clip-rule="evenodd" d="M263.64 155.461V158.816C263.64 159.375 264.2 159.655 264.759 159.375L276.229 152.664C276.788 152.385 277.348 151.546 277.348 150.987V147.352C277.348 146.793 276.788 146.513 276.229 146.793L264.759 153.503C264.2 153.783 263.64 154.622 263.64 155.461Z" fill="#F7F5F5"/>
<path fill-rule="evenodd" clip-rule="evenodd" d="M208.809 206.349L277.068 166.924C279.306 165.806 280.705 166.645 280.705 168.882C280.705 171.118 279.306 173.635 277.068 174.753L208.809 214.178C206.851 215.576 205.172 214.737 205.172 212.5C205.172 210.263 206.851 207.467 208.809 206.349Z" fill="#D7D9D9"/>
<path fill-rule="evenodd" clip-rule="evenodd" d="M208.809 222.286L277.068 182.862C279.306 181.743 280.705 182.582 280.705 184.539C280.705 186.776 279.306 189.572 277.068 190.691L208.809 230.115C206.851 231.234 205.172 230.395 205.172 228.158C205.172 226.201 206.851 223.405 208.809 222.286Z" fill="#D7D9D9"/>
<path fill-rule="evenodd" clip-rule="evenodd" d="M231.189 229.276L254.968 215.576C255.807 215.016 256.647 215.296 256.647 216.414V224.243C256.647 225.362 255.807 226.76 254.968 227.319L231.189 241.02C230.07 241.579 229.231 241.299 229.231 240.181V232.352C229.231 231.234 230.07 229.836 231.189 229.276Z" fill="#2D3980"/>
<path fill-rule="evenodd" clip-rule="evenodd" d="M210.488 207.467C209.369 208.026 208.529 209.424 208.529 210.543C208.529 211.661 209.369 211.941 210.488 211.382C211.327 210.822 212.166 209.704 212.166 208.586C212.166 207.467 211.327 206.908 210.488 207.467Z" fill="#F7F5F5"/>
<path fill-rule="evenodd" clip-rule="evenodd" d="M215.803 204.391C214.964 204.951 214.125 206.349 214.125 207.467C214.125 208.306 214.964 208.865 215.803 208.306C216.642 207.747 217.482 206.349 217.482 205.23C217.482 204.391 216.642 203.832 215.803 204.391Z" fill="#F7F5F5"/>
<path fill-rule="evenodd" clip-rule="evenodd" d="M221.118 201.316C220.279 201.875 219.439 202.993 219.439 204.112C219.439 205.23 220.279 205.789 221.118 205.23C222.237 204.671 223.076 203.273 223.076 202.155C223.076 201.036 222.237 200.757 221.118 201.316Z" fill="#F7F5F5"/>
<path fill-rule="evenodd" clip-rule="evenodd" d="M226.713 197.961C225.874 198.52 225.035 199.918 225.035 201.036C225.035 202.155 225.874 202.714 226.713 202.155C227.552 201.595 228.392 200.197 228.392 199.079C228.392 197.961 227.552 197.401 226.713 197.961Z" fill="#F7F5F5"/>
<path fill-rule="evenodd" clip-rule="evenodd" d="M232.028 194.885C231.189 195.444 230.35 196.842 230.35 197.961C230.35 199.079 231.189 199.359 232.028 198.799C233.147 198.24 233.986 197.122 233.986 196.003C233.986 194.885 233.147 194.326 232.028 194.885Z" fill="#F7F5F5"/>
<path fill-rule="evenodd" clip-rule="evenodd" d="M237.623 191.809C236.504 192.368 235.945 193.766 235.945 194.885C235.945 195.724 236.504 196.283 237.623 195.724C238.463 195.164 239.302 193.766 239.302 192.648C239.302 191.809 238.463 191.25 237.623 191.809Z" fill="#F7F5F5"/>
<path fill-rule="evenodd" clip-rule="evenodd" d="M242.939 188.734C242.1 189.293 241.26 190.411 241.26 191.53C241.26 192.648 242.1 193.207 242.939 192.648C244.058 192.089 244.617 190.691 244.617 189.572C244.617 188.454 244.058 188.174 242.939 188.734Z" fill="#F7F5F5"/>
<path fill-rule="evenodd" clip-rule="evenodd" d="M210.488 223.405C209.369 223.964 208.529 225.362 208.529 226.48C208.529 227.599 209.369 227.878 210.488 227.319C211.327 226.76 212.166 225.362 212.166 224.523C212.166 223.405 211.327 222.845 210.488 223.405Z" fill="#F7F5F5"/>
<path fill-rule="evenodd" clip-rule="evenodd" d="M215.803 220.329C214.964 220.888 214.125 222.007 214.125 223.125C214.125 224.243 214.964 224.803 215.803 224.243C216.642 223.684 217.482 222.286 217.482 221.168C217.482 220.049 216.642 219.77 215.803 220.329Z" fill="#F7F5F5"/>
<path fill-rule="evenodd" clip-rule="evenodd" d="M221.118 216.974C220.279 217.533 219.439 218.931 219.439 220.049C219.439 221.168 220.279 221.727 221.118 221.168C222.237 220.609 223.076 219.211 223.076 218.092C223.076 216.974 222.237 216.694 221.118 216.974Z" fill="#F7F5F5"/>
<path fill-rule="evenodd" clip-rule="evenodd" d="M226.713 213.898C225.874 214.457 225.035 215.855 225.035 216.974C225.035 218.092 225.874 218.372 226.713 217.812C227.552 217.253 228.392 216.135 228.392 215.016C228.392 213.898 227.552 213.339 226.713 213.898Z" fill="#F7F5F5"/>
<path fill-rule="evenodd" clip-rule="evenodd" d="M232.028 210.822C231.189 211.382 230.35 212.78 230.35 213.898C230.35 215.016 231.189 215.296 232.028 214.737C233.147 214.178 233.986 212.78 233.986 211.941C233.986 210.822 233.147 210.263 232.028 210.822Z" fill="#F7F5F5"/>
<path fill-rule="evenodd" clip-rule="evenodd" d="M237.623 207.747C236.504 208.306 235.945 209.424 235.945 210.543C235.945 211.661 236.504 212.22 237.623 211.661C238.463 211.102 239.302 209.704 239.302 208.586C239.302 207.467 238.463 207.187 237.623 207.747Z" fill="#F7F5F5"/>
<path fill-rule="evenodd" clip-rule="evenodd" d="M242.939 204.391C242.1 204.951 241.26 206.349 241.26 207.467C241.26 208.586 242.1 209.145 242.939 208.586C244.058 208.026 244.617 206.628 244.617 205.51C244.617 204.391 244.058 203.832 242.939 204.391Z" fill="#F7F5F5"/>
<path fill-rule="evenodd" clip-rule="evenodd" d="M336.935 183.421C334.697 183.421 332.459 184.26 331.06 185.099C321.549 190.691 313.156 205.789 313.156 217.813C313.156 222.845 314.555 226.48 317.073 227.878C319.591 229.276 323.227 227.599 325.186 226.48C334.977 220.888 343.09 206.069 343.09 193.766C343.09 189.013 341.691 185.099 339.453 183.98C338.614 183.421 337.774 183.421 336.935 183.421ZM319.311 240.181C316.513 240.181 313.716 239.622 311.198 237.944C305.044 234.589 301.407 227.319 301.407 217.813C301.407 201.595 311.758 182.582 325.186 175.033C332.459 170.839 339.453 170.28 345.328 173.635C351.202 177.27 354.839 184.539 354.839 193.766C354.839 210.263 344.488 228.997 331.06 236.826C327.144 239.063 323.227 240.181 319.311 240.181Z" fill="#4C5F68"/>
<path fill-rule="evenodd" clip-rule="evenodd" d="M345.048 196.563C345.048 187.336 339.453 183.98 339.453 183.98C341.691 185.099 343.09 189.013 343.09 193.766C343.09 206.069 334.977 220.888 325.186 226.48C323.227 227.599 319.591 229.276 317.073 227.878C317.073 227.878 321.829 230.954 328.543 227.319C338.334 221.727 345.048 208.586 345.048 196.563Z" fill="#405057"/>
<path fill-rule="evenodd" clip-rule="evenodd" d="M335.816 81.3651C335.816 78.0099 333.019 75.2138 329.662 75.2138C326.305 75.2138 323.507 78.0099 323.507 81.3651V178.388C323.507 179.227 324.347 180.345 325.466 180.905C327.704 182.303 331.62 182.303 334.138 180.905C335.257 180.345 335.816 179.227 335.816 178.388V81.3651Z" fill="#405057"/>
<path fill-rule="evenodd" clip-rule="evenodd" d="M331.061 103.174C331.061 100.938 329.382 98.1414 327.424 97.023C326.305 96.4638 325.466 96.4638 324.906 96.7434L309.799 105.411L309.52 105.691H309.24C308.96 105.97 308.96 105.97 308.68 106.25C307.561 107.089 307.002 108.487 307.002 109.885C307.002 111.842 308.121 113.52 309.799 114.359C310.359 114.638 311.198 114.918 312.037 114.918C312.877 114.918 313.716 114.638 314.555 114.359C314.555 114.079 314.555 114.079 314.835 114.079L329.942 105.411C330.501 104.852 331.061 104.293 331.061 103.174Z" fill="#4C5F68"/>
<path fill-rule="evenodd" clip-rule="evenodd" d="M331.06 127.5C331.06 125.263 329.382 122.467 327.424 121.349C326.304 120.789 325.465 120.789 324.906 121.069L307.281 131.135L307.002 131.414H306.722C306.442 131.694 306.162 131.974 305.883 131.974C305.043 133.092 304.484 134.211 304.484 135.609C304.484 137.566 305.603 139.243 307.002 140.082C307.841 140.362 308.68 140.641 309.519 140.641C310.359 140.641 311.198 140.362 312.037 140.082C312.037 140.082 312.037 139.803 312.317 139.803L329.941 129.737C330.501 129.178 331.06 128.618 331.06 127.5Z" fill="#4C5F68"/>
</g>
<defs>
<clipPath id="clip0_304_20">
<rect width="393" height="340" fill="white"/>
</clipPath>
</defs>
</svg>
